<?xml version="1.0" standalone="no"?>
<!DOCTYPE svg PUBLIC "-//W3C//DTD SVG 20010904//EN"
 "http://www.w3.org/TR/2001/REC-SVG-20010904/DTD/svg10.dtd">
<svg version="1.0" xmlns="http://www.w3.org/2000/svg"
 width="3061.000000pt" height="3312.000000pt" viewBox="0 0 3061.000000 3312.000000"
 preserveAspectRatio="xMidYMid meet">

<g transform="translate(0.000000,3312.000000) scale(0.100000,-0.100000)"
fill="#000000" stroke="none">
<path d="M15470 24689 c-1114 -55 -2196 -436 -3035 -1067 -275 -207 -641 -554
-845 -802 -622 -752 -1023 -1637 -1215 -2683 -124 -675 -154 -1493 -84 -2243
107 -1152 465 -2175 1071 -3061 359 -525 820 -983 1315 -1307 869 -567 1922
-825 3288 -803 453 7 746 36 1120 112 382 77 707 184 1060 348 714 331 1232
750 1710 1382 337 445 567 917 690 1415 98 402 111 726 39 979 -79 275 -275
516 -551 675 l-81 48 -104 -26 c-218 -54 -420 -53 -583 4 -320 113 -597 359
-751 670 -83 167 -122 322 -131 520 -16 372 111 709 367 974 201 208 471 355
690 376 156 14 364 -14 519 -71 l54 -20 66 43 c90 59 254 225 324 329 147 221
207 445 194 727 -21 461 -198 933 -538 1437 -407 604 -1010 1110 -1780 1496
-829 415 -1773 599 -2809 548z m786 -2147 c548 -85 955 -296 1337 -691 127
-131 248 -282 356 -441 105 -154 143 -218 283 -470 267 -482 463 -727 670
-840 46 -25 50 -30 33 -37 -46 -18 -144 -80 -209 -131 -325 -258 -498 -613
-499 -1022 0 -408 174 -765 501 -1023 72 -57 120 -86 233 -144 l72 -36 -40
-16 c-82 -33 -180 -98 -249 -166 -141 -140 -327 -465 -429 -750 -270 -751
-637 -1249 -1155 -1568 -277 -170 -623 -287 -1005 -339 -203 -28 -636 -30
-830 -4 -804 109 -1395 467 -1808 1096 -365 558 -555 1216 -618 2140 -14 211
-14 829 1 1030 82 1145 356 1937 881 2546 446 516 1022 813 1714 883 158 16
611 6 761 -17z"/>
</g>
</svg>
