<?xml version="1.0" standalone="no"?>
<!DOCTYPE svg PUBLIC "-//W3C//DTD SVG 20010904//EN"
 "http://www.w3.org/TR/2001/REC-SVG-20010904/DTD/svg10.dtd">
<svg version="1.0" xmlns="http://www.w3.org/2000/svg"
 width="1019.000000pt" height="672.000000pt" viewBox="0 0 1019.000000 672.000000"
 preserveAspectRatio="xMidYMid meet">

<g transform="translate(0.000000,672.000000) scale(0.100000,-0.100000)"
fill="#000000" stroke="none">
<path d="M4914 4135 c-24 -66 -34 -99 -31 -101 1 -2 38 -7 81 -13 117 -14 106
3 223 -331 41 -118 113 -323 160 -455 46 -132 91 -264 100 -294 l16 -53 60 6
c33 3 68 6 77 6 14 0 29 30 63 123 25 67 66 167 92 222 25 55 54 129 65 165
11 36 80 184 153 329 l132 264 65 18 c72 20 110 53 110 97 l0 27 -232 -1 -232
-2 -18 -53 c-10 -29 -16 -54 -15 -56 2 -1 26 -5 53 -9 27 -3 59 -7 71 -10 l23
-4 -22 -58 c-26 -70 -287 -664 -296 -674 -5 -5 -251 669 -265 726 -1 4 19 14
45 22 53 16 88 53 88 93 l0 26 -281 0 c-179 0 -283 -4 -285 -10z"/>
<path d="M8063 4060 c-17 -10 -62 -47 -98 -82 l-66 -63 -10 -73 c-5 -40 -11
-77 -14 -81 -2 -5 -18 -11 -34 -14 -45 -9 -91 -56 -98 -100 l-6 -38 67 7 66 7
-6 -229 c-9 -320 11 -414 99 -472 38 -25 48 -27 151 -27 101 0 117 3 171 28
33 15 83 46 113 68 l53 40 -22 37 c-13 20 -24 39 -25 40 -1 2 -36 -8 -77 -22
-119 -41 -172 -34 -204 27 -14 26 -18 67 -21 205 -2 95 -1 202 3 237 l7 65
138 0 139 0 10 38 c5 20 13 53 16 73 l7 36 -153 -5 -152 -5 7 137 c3 76 8 142
9 148 1 5 -7 16 -18 24 -18 12 -25 11 -52 -6z"/>
<path d="M6563 3785 c-82 -22 -132 -53 -199 -119 -97 -98 -144 -218 -144 -369
1 -197 90 -336 250 -387 92 -30 226 -25 310 10 62 26 223 128 218 138 -37 73
-44 83 -58 79 -8 -3 -48 -17 -87 -31 -112 -40 -215 -34 -290 16 -37 25 -88
118 -98 179 l-7 37 139 6 c76 4 187 10 247 14 l110 7 9 30 c17 58 13 196 -6
247 -24 61 -93 123 -160 143 -62 19 -165 18 -234 0z m115 -151 c28 -20 48 -58
57 -111 5 -32 3 -44 -7 -47 -7 -3 -70 -6 -141 -8 -141 -3 -136 -6 -117 64 12
43 53 96 84 108 34 14 100 11 124 -6z"/>
<path d="M7307 3790 c-151 -39 -249 -148 -249 -279 0 -112 54 -176 211 -248
147 -67 162 -76 193 -106 69 -70 5 -149 -107 -133 -85 13 -148 78 -160 165
l-6 48 -52 -5 c-29 -2 -53 -6 -55 -7 -1 -1 -5 -54 -9 -118 l-6 -116 35 -35
c51 -51 125 -70 257 -64 168 8 279 66 330 171 28 58 28 146 0 203 -31 64 -80
101 -229 172 -160 76 -190 100 -190 153 0 47 27 69 87 69 64 0 89 -16 120 -79
15 -31 33 -59 38 -63 16 -12 73 -9 109 6 45 19 66 52 66 103 0 35 -7 50 -35
82 -51 56 -121 83 -225 87 -47 2 -102 -1 -123 -6z"/>
</g>
</svg>
